<svg width="821" height="824" viewBox="0 0 821 824" fill="none" xmlns="http://www.w3.org/2000/svg">
<path d="M556.8 1.33331C521.867 1.99997 518.4 2.26664 514.267 4.66664C509.867 7.33331 497.2 24.5333 450.4 91.8666C442.533 103.2 431.6 118.933 426.133 126.8C413.467 144.933 338.4 252.933 324.533 273.067C318.8 281.333 314.133 288.267 314.133 288.4C314.133 288.8 406.933 280.8 419.067 279.333L427.333 278.4L371.333 389.733C340.533 450.933 311.467 509.333 306.667 519.6L298 538L311.067 525.333C358.4 479.6 638.133 200.933 637.467 200.267C636.8 199.6 568.4 202.133 536 204C524.133 204.8 509.867 206.267 504.133 207.333C493.6 209.333 489.733 209.067 495.6 206.8C505.6 202.933 516.4 197.333 518.267 195.2C519.467 193.733 527.467 180.933 536.133 166.667C544.8 152.4 561.067 125.6 572.133 107.333C583.333 88.9333 600.133 61.3333 609.733 46C619.333 30.5333 629.6 14 632.533 8.93331L638.133 -2.80589e-05L616.4 0.266639C604.533 0.399972 577.733 0.933305 556.8 1.33331Z" fill="#3270E4"/>
<path d="M428.778 17.4669C359.444 22.2669 304.644 44.1335 253.311 87.7335C219.978 116.134 191.844 156.667 177.978 196.534C176.511 200.534 175.444 204.267 175.444 204.8C175.444 205.334 180.378 203.867 186.511 201.334C192.511 198.934 199.844 196.267 202.778 195.334C207.844 193.867 208.378 193.067 214.111 180.934C227.711 151.734 244.511 127.6 267.444 104.534C296.911 74.8002 328.644 54.6669 371.444 38.6669C399.311 28.1335 421.444 23.3335 453.444 20.6669C470.644 19.2002 476.511 18.0002 466.644 18.0002C463.844 18.0002 455.711 17.7335 448.778 17.4669C441.844 17.2002 432.778 17.2002 428.778 17.4669Z" fill="#042946"/>
<path d="M412.378 41.9996C383.312 46.9329 346.112 61.7329 321.178 78.3996C282.778 104.133 252.778 138.8 237.312 175.466C234.778 181.333 232.778 186.533 232.778 187.066C232.778 187.466 236.378 181.733 240.778 174.266C271.978 121.6 318.778 81.8662 376.912 58.7996C400.912 49.1996 422.378 44.2662 456.112 40.2662C458.378 39.9996 452.645 39.7329 443.445 39.5996C433.178 39.5996 421.312 40.5329 412.378 41.9996Z" fill="#3270E4"/>
<path d="M726.808 196.536L729.444 195.836C743.844 191.969 769.844 200.2 778.111 211.4C801.178 242.867 768.511 285.4 689.578 326.333C643.711 350.2 584.111 372.067 520.111 388.333C508.378 391.4 492.778 394.867 485.311 396.067L471.844 398.333L457.578 411.8L443.444 425.267L454.644 423.533C536.778 410.333 649.844 373.133 708.111 339.933C772.644 303.267 803.978 267.933 801.844 234.467C800.778 217.8 790.911 204.333 774.378 196.6C767.178 193.133 765.844 193 745.844 193.133C735.887 193.133 728.593 195.982 726.808 196.536Z" fill="#3270E4"/>
<path d="M622.511 94.0668C679.445 141.533 712.778 208.733 712.778 276.467V292.467L724.645 284.333C742.245 272.333 741.445 273.8 739.578 256.067C737.845 238.6 734.378 221.267 729.711 206.733L726.524 196.64L726.511 196.6C725.945 195 711.311 160.867 704.245 149.133C693.045 130.6 682.511 116.867 666.778 100.467C655.311 88.4668 627.178 64.3335 624.778 64.3335C624.378 64.3335 620.778 68.8668 616.911 74.4668C610.778 83.4001 610.111 84.8668 611.978 85.9335C613.178 86.6001 617.845 90.3335 622.511 94.0668Z" fill="#042946"/>
<path d="M124.912 221.334C108.378 229.734 93.3117 238.267 91.1783 240.267C85.1783 246 80.7783 256.134 80.7783 264.134C80.7783 269.6 82.9117 276.267 90.7783 296.134C96.7783 311.2 101.978 322.4 103.845 323.867C105.445 325.2 109.978 327.867 113.978 329.734C120.512 332.667 122.112 332.934 132.645 332.134C138.912 331.6 156.245 329.067 171.178 326.534C186.112 324 198.645 322 198.912 322C199.312 322 197.445 320 194.912 317.467C189.445 311.867 185.978 304.667 168.512 262.4C154.512 228 152.512 220.667 155.178 210.934C155.978 208.267 156.112 206 155.712 206C155.178 206 141.312 212.934 124.912 221.334Z" fill="#042946"/>
<path d="M203.311 215.6C194.911 219.2 184.511 223.6 180.111 225.467C168.778 230.4 168.378 230.8 170.645 238.4C172.911 246 174.911 248.667 178.111 248.667C179.445 248.667 188.245 245.467 197.711 241.467C207.045 237.6 217.578 233.334 221.178 232C225.711 230.267 227.711 228.667 228.245 226.4C229.311 222.267 223.978 210.4 220.778 209.6C219.445 209.2 211.578 212 203.311 215.6Z" fill="#042946"/>
<path d="M210.778 264.8C198.378 269.866 187.578 274.666 186.911 275.333C185.578 276.666 189.445 288.133 192.511 291.6C195.045 294.533 196.378 294.266 220.645 284.4C231.311 280.133 240.778 276.666 241.711 276.666C242.778 276.666 244.111 275.066 244.911 273.066C247.445 266.4 241.311 255.2 235.178 255.333C234.245 255.466 223.311 259.6 210.778 264.8Z" fill="#042946"/>
<path d="M68.5114 278.133C61.7114 281.6 61.978 284 70.2447 302.4C78.5114 320.666 79.978 322.533 85.3114 321.466C87.578 320.933 89.8447 320.133 90.2447 319.6C91.3114 318.666 83.578 297.6 77.3114 283.733L73.4447 275.466L68.5114 278.133Z" fill="#042946"/>
<path d="M54.1116 285.067C52.2449 286 50.6449 288.133 50.3782 289.733C49.8449 293.067 59.7116 318 63.7116 323.6C67.3116 328.667 76.7782 328.533 76.7782 323.467C76.7782 321.067 69.9782 304.4 68.5116 303.333C67.9782 302.933 65.8449 298.4 63.5782 293.333C61.4449 288.267 59.1782 283.867 58.5116 283.733C57.9782 283.6 55.9782 284.133 54.1116 285.067Z" fill="#042946"/>
<path d="M36.3729 310.463C8.68831 331.787 -6.03181 368.304 2.3411 394.825C5.98737 406.553 10.714 413.617 20.7075 422.679C35.2926 435.873 55.8197 444.803 84.3146 450.533C102.681 454.132 151.973 453.732 176.687 449.734C227.734 441.471 283.239 421.613 334.016 393.492C341.984 388.961 342.254 388.695 350.492 372.302C355.219 363.106 359 355.51 359 355.243C359 354.977 355.219 357.509 350.627 360.841C337.798 370.036 314.705 383.097 292.827 393.359C232.461 422.013 163.722 436.673 110.784 432.542C74.1861 429.609 52.3085 421.88 36.1028 405.754C22.058 391.76 18.6818 379.899 24.0837 362.84C27.865 350.845 33.1318 342.449 44.2056 330.721L53.929 320.459L50.8229 311.796C49.0673 306.998 47.3117 303 46.9066 303C46.3664 303 41.6398 306.332 36.3729 310.463Z" fill="#042946"/>
<path d="M189.579 342.266C182.379 343.466 176.245 344.8 176.112 344.933C175.312 345.866 183.712 368.666 188.779 379.066C195.179 392.4 205.979 411.333 207.179 411.333C209.579 411.333 234.112 404 234.112 403.2C234.112 402.8 231.045 397.333 227.312 391.2C219.312 378 211.712 362 207.445 350C205.712 345.2 203.979 340.933 203.579 340.533C203.179 340.133 196.779 340.933 189.579 342.266Z" fill="#042946"/>
<path d="M718.778 352.134C712.245 356.134 703.978 360.667 700.645 362.134C695.311 364.534 694.111 366 691.578 372C684.378 389.334 665.178 417.867 647.978 436.934C617.578 470.534 569.845 498.267 520.911 510.534C473.978 522.4 417.045 520.4 372.511 505.2L363.445 502.134L352.778 512.267C346.911 517.734 342.511 522.8 342.778 523.467C344.111 525.6 376.378 535.2 392.911 538.534C419.711 543.867 435.445 545.067 463.711 544.267C491.711 543.467 506.111 541.467 530.778 535.067C611.711 514.134 679.711 459.734 714.645 388.134C721.178 374.8 732.111 346.134 731.045 345.2C730.911 345.067 725.445 348.267 718.778 352.134Z" fill="#042946"/>
<path d="M655.845 393.6C641.045 414.267 614.245 439.867 592.112 454.667C549.312 483.333 500.778 498.133 449.845 498C435.578 497.867 408.778 495.333 400.112 493.333C397.978 492.667 396.378 492.667 396.778 493.067C398.112 494.4 425.578 500.533 436.778 502C460.645 504.933 493.845 502.533 520.112 496.133C578.245 481.867 630.112 443.333 657.978 393.6C660.378 389.467 662.112 386 661.845 386C661.578 386 658.778 389.467 655.845 393.6Z" fill="#3270E4"/>
<path d="M261.445 441.867C260.645 442.534 255.311 444.667 249.445 446.534C243.578 448.534 237.978 450.4 236.911 450.8C235.578 451.2 236.511 452.934 240.245 456.8C251.978 469.067 286.511 496.667 289.978 496.667C291.045 496.667 302.911 477.067 303.845 473.867C303.978 473.467 298.778 469.067 292.111 464C285.578 459.067 276.378 451.734 271.845 447.734C262.911 440 263.178 440.134 261.445 441.867Z" fill="#042946"/>
<path d="M76.7783 660.667V727.467L147.845 727.067C218.378 726.667 218.778 726.667 226.378 723.6C239.978 718.133 245.445 708.8 245.445 690.667C245.445 676.533 241.578 669.333 231.178 664.133C227.445 662.267 223.045 660.667 221.578 660.667C219.578 660.533 220.245 659.733 224.112 657.733C236.512 651.333 241.845 640.8 240.245 625.733C238.778 610.667 233.178 602.667 220.912 597.733C213.578 594.8 212.245 594.667 145.178 594.267L76.7783 593.867V660.667ZM192.645 629.467C197.578 635.867 195.578 644.8 188.645 647.2C185.978 648.133 172.778 648.667 153.312 648.667H122.112V637.333V626H155.978H189.978L192.645 629.467ZM196.245 674.8C201.045 678.267 202.778 684.667 200.645 690.933C198.112 698.8 195.045 699.333 156.112 699.333H122.112V685.2V671.2L157.312 671.6C190.645 672 192.778 672.133 196.245 674.8Z" fill="#042946"/>
<path d="M268.778 642.667C268.778 671.867 269.312 693.867 270.245 697.867C271.978 706.4 277.978 715.733 284.378 719.867C294.512 726.533 301.578 727.333 350.778 727.467C399.578 727.6 406.378 726.933 417.045 721.067C424.778 716.8 429.178 711.6 433.178 701.733C435.978 694.933 436.112 692.267 436.512 644.267L436.912 594H414.245H391.445L391.312 608.267C391.312 616.267 391.178 635.867 391.045 652C390.645 694.533 391.845 693.333 353.445 693.333C334.778 693.333 326.912 692.8 323.712 691.467C315.578 688.133 315.445 686.8 315.445 638V594H292.112H268.778V642.667Z" fill="#042946"/>
<path d="M534.244 638.933C534.511 672.8 534.244 684.8 533.044 686.933C529.444 693.333 525.978 694 491.711 694H459.844L456.511 710.267C454.644 719.333 453.178 726.8 453.311 726.933C453.444 727.067 473.311 727.333 497.578 727.333C549.978 727.467 556.644 726.667 567.844 717.733C574.911 712.133 579.044 702.8 580.644 688.667C582.111 675.867 582.644 610.533 581.311 600.533L580.378 594H557.178H533.978L534.244 638.933Z" fill="#042946"/>
<path d="M638.645 596C621.445 599.733 613.312 606.933 608.645 622C605.978 630.8 605.845 633.6 606.378 663.733C606.912 689.733 607.445 697.2 609.312 701.866C613.978 714.4 622.512 721.866 636.378 725.333C643.045 727.066 654.245 727.6 691.712 727.866C755.312 728.533 767.578 726.933 778.912 716.4C781.978 713.6 785.845 708.133 787.578 704.266C790.645 697.466 790.778 696.4 790.778 660.666C790.778 624.8 790.645 623.866 787.578 616.933C783.445 607.866 775.045 600.4 765.178 597.333C758.245 595.066 751.578 594.8 702.112 594.533C659.312 594.266 644.912 594.533 638.645 596ZM735.845 629.066C743.845 632.533 745.045 636.933 744.512 662.8C743.845 695.2 743.978 695.066 698.778 695.066C665.978 695.066 660.245 694.133 655.845 687.466C652.912 683.2 652.778 681.6 652.778 661.733C652.778 633.466 654.378 629.6 667.045 627.333C670.512 626.666 686.378 626.266 702.112 626.533C725.045 626.8 731.712 627.333 735.845 629.066Z" fill="#042946"/>
<path d="M128.778 790V822H160.778H192.778V814.667V807.333H171.445H150.112V802V796.667H168.112H186.112V790.667V784.667H168.112H150.112V779.333V774H171.445H192.778V766V758H160.778H128.778V790Z" fill="#3270E4"/>
<path d="M210.111 790.267V822H235.178C248.911 822 262.378 822.4 265.178 822.8L270.111 823.733V815.6V807.467L251.178 807.067L232.111 806.667L231.711 782.267L231.445 757.867L220.778 758.267L210.111 758.667V790.267Z" fill="#3270E4"/>
<path d="M282.111 790.8V823.733L297.178 822.933C305.311 822.4 320.111 822 329.845 822H347.445V815.6V809.067L334.511 808.267C327.311 807.733 317.711 807.333 313.311 807.333H305.045L304.511 802.667C304.111 799.6 304.645 797.867 305.845 797.333C306.778 796.933 314.778 796.667 323.578 796.667H339.445V790.667V784.8L321.845 784.4L304.111 784V779.333V774.667L325.178 774.267L346.111 773.867V766.133V758.4L314.111 758.133L282.111 757.867V790.8Z" fill="#3270E4"/>
<path d="M377.712 759.867C364.645 763.467 361.445 770.4 362.378 793.333C363.045 809.2 364.512 814.133 370.245 818.4C375.845 822.4 383.578 823.2 409.845 822.4L434.112 821.6V814.533V807.6L411.312 807.067C389.178 806.667 388.512 806.533 385.978 803.467C383.978 801.067 383.445 798.267 383.445 790.8C383.445 782.133 383.845 780.8 386.912 777.867C390.245 774.8 391.178 774.667 411.845 774.267L433.445 773.733L433.045 766.667C432.512 760 432.378 759.6 428.512 758.8C421.045 757.333 384.378 758.133 377.712 759.867Z" fill="#3270E4"/>
<path d="M446.111 766.666V775.333H458.111H470.111V799.466V823.6L473.178 822.8C474.778 822.4 479.845 822 484.378 822H492.645L492.245 798.8C491.978 772.133 490.778 774.266 505.845 774.8L515.445 775.2V766.666V758H480.778H446.111V766.666Z" fill="#3270E4"/>
<path d="M528.511 758.8C527.844 759.333 527.444 773.733 527.444 790.933V822H538.111H548.778V813.333V804.667H556.511H564.378L572.244 814L580.111 823.467L592.244 823.067C599.978 822.8 604.244 822.133 603.711 821.333C603.311 820.533 599.711 816.4 595.844 811.867C591.978 807.333 588.778 803.333 588.778 802.8C588.778 802.4 589.978 802 591.311 802C592.778 802 595.711 800.533 597.711 798.8C601.178 795.733 601.444 794.933 601.844 782.8C602.778 760.4 600.511 759.067 558.778 758.267C542.644 758 529.044 758.133 528.511 758.8ZM579.711 776.267C582.644 778.933 582.778 784.4 579.844 787.6C577.978 789.6 575.578 790 563.178 790H548.778V782V774H563.044C574.378 774 577.711 774.4 579.711 776.267Z" fill="#3270E4"/>
<path d="M621.711 785.2C620.778 812.8 621.311 820.533 623.978 822.266C624.778 822.8 629.445 823.333 634.511 823.333H643.445L643.178 790.933L642.778 758.666L632.645 758.266L622.511 757.866L621.711 785.2Z" fill="#3270E4"/>
<path d="M677.711 759.467C664.244 762.667 661.444 767.867 661.444 790.667C661.444 805.734 661.844 808.667 664.111 812.667C668.644 820.534 674.644 822.401 696.378 823.067C706.778 823.467 719.178 823.201 723.978 822.667L732.778 821.734V814.667V807.467L710.911 807.067C683.044 806.534 683.178 806.667 683.711 790.134L684.111 778.667L688.778 776.401C692.644 774.401 697.044 774.001 713.178 774.001H732.778V766.001V758.001L707.844 758.134C693.978 758.267 680.511 758.801 677.711 759.467Z" fill="#3270E4"/>
<path d="M81.4444 781.333C71.1778 782.266 57.9778 783.333 52.2444 783.866C40.6444 784.666 37.0444 786 46.2444 786C49.4444 786 63.5778 787.2 77.4444 788.666C91.4444 790.133 102.911 791.333 103.178 791.333C103.311 791.333 103.444 788.666 103.444 785.333C103.444 781.333 102.911 779.333 101.844 779.466C100.911 779.6 91.7111 780.4 81.4444 781.333Z" fill="#3270E4"/>
<path d="M759.444 785.2C759.444 789.333 759.978 791.333 761.178 791.2C761.978 791.2 777.178 789.866 794.778 788.133C830.244 784.8 830.778 785.2 788.778 782C778.911 781.2 768.244 780.266 765.178 779.866L759.444 779.2V785.2Z" fill="#3270E4"/>
</svg>
